<svg preserveAspectRatio="none" overflow="visible" style="display: block;" width="36" height="36" viewBox="0 0 36 36" fill="none" xmlns="http://www.w3.org/2000/svg">
<g id="LinkedIn">
<path id="Subtract" fill-rule="evenodd" clip-rule="evenodd" d="M6.24535 3.99756C5.00363 3.99756 3.99701 5.00418 3.99701 6.24591V28.7294C3.99701 29.9711 5.00363 30.9777 6.24536 30.9777H28.7288C29.9705 30.9777 30.9772 29.9711 30.9772 28.7294V6.2459C30.9772 5.00418 29.9705 3.99756 28.7288 3.99756H6.24535ZM10.6759 12.8587C11.8812 12.8587 12.8582 11.8817 12.8582 10.6765C12.8582 9.4713 11.8812 8.49429 10.6759 8.49429C9.47073 8.49429 8.49371 9.4713 8.49371 10.6765C8.49371 11.8817 9.47073 12.8587 10.6759 12.8587ZM14.8567 14.4715H18.4734V16.1283C18.4734 16.1283 19.4548 14.1654 22.1252 14.1654C24.5072 14.1654 26.4805 15.3389 26.4805 18.9157V26.4581H22.7326V19.8296C22.7326 17.7197 21.6061 17.4876 20.7478 17.4876C18.9663 17.4876 18.6613 19.0242 18.6613 20.1048V26.4581H14.8567V14.4715ZM12.5783 14.4715H8.77364V26.4581H12.5783V14.4715Z" fill="white"/>
</g>
</svg>
