<svg xmlns="http://www.w3.org/2000/svg" width="1087" height="1162" fill="none" overflow="visible" preserveAspectRatio="none" style="display:block" viewBox="0 0 1087 1162"><g filter="url(#a)"><g clip-path="url(#b)"><g filter="url(#c)"><path fill="url(#d)" d="M329.754 1073.47c-2.45-9.85 2.099-126.791 22.124-109.355 16.021 13.949 18.105 51.785 17.145 68.965 5.229-54.104 23.451-155.717 54.509-129.368 18.027 15.294 23.574 32.969 23.71 47.731 17.665-77.824 52.252-200.025 84.488-216.594 45.051-23.155 114.667-139.837 113.625-150.038s-6.193-106.052 67.564-161.001 122.66-200.851 141.134-207.685c14.78-5.468-21.024 74.713-40.773 115.488l31.84 128.068 79.34-155.71c-8.071 30.648-32.369 116.238-64.994 213.412-40.781 121.467 13.343 152.84 52.951 122.819 39.608-30.02 45.462-69.582 72.05-94.871 21.273-20.232 39.153-38.873 45.433-45.665-7.25 30.942-38.134 113.487-103.662 196.127-81.91 103.3-65.721 231.523-104.617 255.39s-78.854 52.477-103.7 90.787c-19.877 30.64-17.042 167.87-13.14 232.65-52.833 57.96-160.155 175.05-166.774 179.69-8.272 5.79-52.226 132.53-61.747 151.33-7.617 15.05-100.845-348.51-146.506-532.17"/></g><g filter="url(#e)"><path fill="url(#f)" d="M275.076 1079.1c-2.483-9.99 3.792-128.98 24.875-111.493 16.865 13.99 18.617 52.443 17.385 69.923 6.226-55.084 26.855-158.654 59.56-132.237 18.983 15.332 24.664 33.24 24.628 48.253 19.743-79.369 58.029-204.079 92.515-221.327 48.195-24.105 123.666-143.633 122.684-153.996-.983-10.362-5.282-107.785 73.833-164.578s132.917-205.786 152.648-212.964c15.784-5.743-23.278 76.247-44.783 117.959l32.287 129.862 86.291-159.343c-8.96 31.27-35.853 118.619-71.745 217.852-44.864 124.041 12.31 155.283 54.801 124.263s49.205-71.328 77.791-97.376c22.874-20.839 42.114-40.018 48.874-47.003-8.09 31.559-41.946 115.892-112.65 200.748-88.38 106.069-72.741 236.28-114.4 261.033s-84.505 54.344-111.399 93.614c-21.516 31.41-20.189 170.94-16.836 236.77-56.9 59.61-172.475 180.02-179.57 184.81-8.87 5.99-57.173 135.44-67.529 154.68-8.285 15.39-102.959-353.22-149.26-539.45"/></g><g filter="url(#g)"><ellipse cx="799.054" cy="760.476" fill="#bd58b8" rx="54.382" ry="174.023" transform="rotate(32.427 799.054 760.476)"/></g><g filter="url(#h)"><ellipse cx="521.003" cy="892.472" fill="#48d7f2" rx="82.661" ry="229.855" transform="rotate(18.9 521.003 892.472)"/></g><g filter="url(#i)"><ellipse cx="703.727" cy="978.033" fill="#48d7f2" rx="82.661" ry="229.855" transform="rotate(18.9 703.727 978.033)"/></g><g filter="url(#j)"><path fill="url(#k)" d="M803.643 986.186c-147.605 16.634-451.614 169.644-585.168 244.064 80.93-16.5 89.937-23.8 366.695-137.35 121.325-49.78 293.485-100.421 378.275-106.714 8.234-6.932-12.198-16.636-159.802 0"/></g><g filter="url(#l)"><path fill="url(#m)" d="M802.638 869.311c-129.965 71.923-352.146 329.739-446.991 449.659 68.428-46.26 73.952-56.45 286.08-267.38 92.992-92.467 232.609-205.207 308.517-243.509 4.95-9.558-17.641-10.693-147.606 61.23"/></g><g filter="url(#n)"><path fill="url(#o)" d="M253.571 634.628C357.345 730.861 463.849 1108.1 504.13 1284.7c-50.228-63.9-50.887-79.25-171.09-383.863C280.347 767.299 187.516 607.96 124.958 557.6c-.368-14.421 24.839-19.204 128.613 77.028"/></g><g filter="url(#p)"><path fill="url(#q)" d="M655.723 1031.4c-145.243 37-430.489 298.45-554.957 424.55 78.771-31.81 86.898-43.87 349.588-241.72 115.157-86.74 280.907-178.62 364.723-194.78 7.4-11.43-14.111-25.043-159.354 11.95"/></g><g filter="url(#r)"><path fill="url(#s)" d="M456.815 909.052c81.206 120.198 102.362 517.468 102.789 701.078-35.436-75.22-32.663-90.47-83.593-419.68-22.326-144.31-78.61-323.89-129.273-388.823 2.856-14.275 28.87-12.774 110.077 107.425"/></g><g filter="url(#t)"><path fill="url(#u)" d="M257.849 650.46c100.998 113.632 210.873 463.25 253.186 623.85-49.271-69.49-50.242-82.54-171.543-375.762-53.176-128.542-145.159-291.481-205.874-353.58-.672-12.183 23.232-8.14 124.231 105.492"/></g><g filter="url(#v)"><path fill="url(#w)" d="M497.339 811.268c42.589 144.609-62.525 545.562-120.406 727.972-11.355-85.71-3.753-99.98 50.138-442.65 23.624-150.213 24.675-346.005-5.089-426.241 7.374-13.281 32.768-3.69 75.357 140.919"/></g><g filter="url(#x)"><path fill="#fff" d="M467.913 1169.23c11.31-88.3 45.523-271.447 91.894-297.668 14.89-8.42 22.21-5.209 24.646 4.573 39.497-155.22 98.441-349.465 134.873-342.541 45.24 8.597-5.812 184.835-36.994 271.879L820.88 452.46c-1.021 146.865-27.898 453.168-127.238 503.46-99.339 50.29-180.096 200.06-208.057 268.66z"/></g><g filter="url(#y)"><circle cx="472.762" cy="1070.24" r="187.074" fill="#fff"/></g><g filter="url(#z)"><ellipse cx="765.864" cy="788.531" fill="#eb5858" rx="39.155" ry="145.029" transform="rotate(22.428 765.864 788.531)"/></g><g filter="url(#A)"><path fill="#f64a28" d="m509.992 938.268-10.216 151.622 125.78-85.28-90.566 122.03 151.917-3.74-142.162 53.69 129.821 78.99-148.622-31.69 66.508 136.64-107.895-107.01-17.921 150.9-32.914-148.36-96.659 117.26 52.518-142.6-144.71 46.39 121.276-91.57-146.816-39.21 151.53-11.47-102.309-112.36 133.673 72.27-25.319-149.834 73.377 133.074z"/></g><g filter="url(#B)"><path fill="#f6e841" d="m454.678 899.845 14.131 147.275 58.948-135.7-32.07 144.43 97.995-110.839-75.131 127.449 127.45-75.131-110.838 97.991 144.428-32.07-135.695 58.95 147.27 14.13-147.27 14.13 135.695 58.95-144.428-32.07 110.838 98-127.45-75.13 75.131 127.45-97.995-110.84 32.07 144.43-58.948-135.7-14.131 147.27-14.131-147.27-58.948 135.7 32.07-144.43-97.995 110.84 75.131-127.45-127.45 75.13 110.838-98-144.429 32.07 135.696-58.95-147.27-14.13 147.27-14.13-135.696-58.95 144.429 32.07-110.838-97.991 127.45 75.131-75.131-127.449 97.995 110.839-32.07-144.43 58.948 135.7z"/></g><g filter="url(#C)"><path fill="#fff" d="m454.677 993.382 11.337 118.148 47.29-108.86-25.728 115.86 78.616-88.92-60.273 102.25 102.245-60.27-88.919 78.61 115.867-25.73-108.86 47.3 118.145 11.33-118.145 11.34 108.86 47.29L519.245 1216l88.919 78.62-102.245-60.28 60.273 102.25-78.616-88.92 25.728 115.87-47.29-108.86-11.337 118.14-11.336-118.14-47.29 108.86 25.727-115.87-78.615 88.92 60.273-102.25-102.245 60.28 88.918-78.62-115.866 25.73 108.86-47.29-118.146-11.34 118.146-11.33-108.86-47.3 115.866 25.73-88.918-78.61 102.245 60.27-60.273-102.25 78.615 88.92-25.727-115.86 47.29 108.86z"/></g><g filter="url(#D)"><path fill="#fff" d="m454.199 928 2.271 23.976 9.472-22.091-5.153 23.512 15.746-18.044-12.073 20.749 20.48-12.231-17.81 15.953 23.207-5.221-21.804 9.597 23.664 2.3-23.664 2.301 21.804 9.596-23.207-5.221 17.81 15.954-20.48-12.231 12.073 20.748-15.746-18.044 5.153 23.517-9.472-22.095-2.271 23.975-2.271-23.975-9.472 22.095 5.153-23.517-15.746 18.044 12.073-20.748-20.48 12.231 17.81-15.954-23.207 5.221 21.804-9.596-23.664-2.301 23.664-2.3-21.804-9.597 23.207 5.221-17.81-15.953 20.48 12.231-12.073-20.749 15.746 18.044-5.153-23.512 9.472 22.091z"/></g><mask id="E" width="354" height="773" x="467" y="452" maskUnits="userSpaceOnUse" style="mask-type:alpha"><path fill="#fff" d="M467.913 1169.23c11.31-88.3 45.523-271.447 91.894-297.668 14.89-8.42 22.21-5.209 24.646 4.573 39.497-155.22 98.441-349.465 134.873-342.541 45.24 8.597-5.812 184.835-36.994 271.879L820.88 452.46c-1.021 146.865-27.898 453.168-127.238 503.46-99.339 50.29-180.096 200.06-208.057 268.66z"/></mask><g mask="url(#E)"><g filter="url(#F)"><path fill="#fff" d="M467.913 1169.23c11.31-88.3 45.523-271.447 91.894-297.668 14.89-8.42 22.21-5.209 24.646 4.573 39.497-155.22 98.441-349.465 134.873-342.541 45.24 8.597-5.812 184.835-36.994 271.879L820.88 452.46c-1.021 146.865-27.898 453.168-127.238 503.46-99.339 50.29-180.096 200.06-208.057 268.66z"/></g><g filter="url(#G)"><ellipse cx="655.009" cy="1028.28" fill="#3adfe7" rx="57.9" ry="202.515" transform="rotate(27.678 655.009 1028.28)"/></g><g filter="url(#H)"><ellipse cx="692.426" cy="727.324" fill="#f15ecf" rx="73.241" ry="202.515" transform="rotate(23.76 692.426 727.324)"/></g><g filter="url(#I)"><ellipse cx="696.804" cy="878.76" fill="#e9e675" rx="26.776" ry="294.584" transform="rotate(34.788 696.804 878.76)"/></g><g filter="url(#J)"><ellipse cx="468.329" cy="944.908" fill="#4593e5" rx="36.132" ry="202.515" transform="rotate(11.392 468.329 944.908)"/></g><g filter="url(#K)"><path fill="#fff" d="M358.535 1402.73c3.437-25.86 77.336-204.47 345.434-712.074 22.147-56.174 58.32-135.579 25.843-3.805-32.478 131.773-261.05 532.159-371.277 715.879"/></g></g><mask id="L" width="272" height="755" x="190" y="474" maskUnits="userSpaceOnUse" style="mask-type:alpha"><path fill="#fff" d="M414.704 1199.75c-46.816-69.46-136.364-220.148-120.025-267.28 5.247-15.134 12.385-17.373 20.165-11.952-68.508-134.183-147.548-307.968-117.64-325.519 37.14-21.796 110.56 134.382 142.628 215.196L218.281 475c90.378 104.56 261.47 337.882 222.82 434.691s-2.534 252.559 20.355 318.329z"/></mask><g mask="url(#L)"><g filter="url(#M)"><path fill="#fff" d="M414.704 1199.75c-46.816-69.46-136.364-220.148-120.025-267.28 5.247-15.134 12.385-17.373 20.165-11.952-68.508-134.183-147.548-307.968-117.64-325.519 37.14-21.796 110.56 134.382 142.628 215.196L218.281 475c90.378 104.56 261.47 337.882 222.82 434.691s-2.534 252.559 20.355 318.329z"/></g><g filter="url(#N)"><ellipse cx="54.209" cy="190.305" fill="#3adfe7" rx="54.209" ry="190.305" transform="matrix(.97276 -.2318 .23699 .97151 360.986 812.385)"/></g><g filter="url(#O)"><ellipse cx="25.087" cy="276.626" fill="#e9e675" rx="25.087" ry="276.626" transform="matrix(.99401 -.10924 .11528 .99333 338.637 581.097)"/></g><g filter="url(#P)"><ellipse cx="33.789" cy="190.522" fill="#4593e5" rx="33.789" ry="190.522" transform="rotate(-29.77 1754.431 161.182)skewX(.144)"/></g><g filter="url(#Q)"><path fill="url(#R)" d="M289.174 734.496c-11.8 93.084 90.261 281.944 142.766 364.734-64.519-36.29-187.351-314.866-161.482-363.64 20.695-39.019-23.214-135.837-47.755-179.368 27.073 20.639 78.27 85.189 66.471 178.274"/></g></g><g filter="url(#S)"><path fill="#fff" d="m746.847 374.149 3.987 35.168 35.168 3.987-35.168 3.987-3.987 35.168-3.987-35.168-35.168-3.987 35.168-3.987z"/></g><g filter="url(#T)"><path fill="#fff" d="m680.139 977.427 2.805 24.753 24.748 2.8-24.748 2.81-2.805 24.74-2.806-24.74-24.748-2.81 24.748-2.8z"/></g><g filter="url(#U)"><path fill="#fff" d="m1164.5 938.272 2.81 24.748 24.75 2.806-24.75 2.806-2.81 24.748-2.8-24.748-24.75-2.806 24.75-2.806z"/></g></g></g><defs><filter id="a" width="1099" height="1174" x="-12" y="-12" color-interpolation-filters="sRGB" filterUnits="userSpaceOnUse"><feFlood flood-opacity="0" result="BackgroundImageFix"/><feBlend in="SourceGraphic" in2="BackgroundImageFix" result="shape"/><feGaussianBlur result="effect1_foregroundBlur_0_4" stdDeviation="6"/></filter><filter id="c" width="859.979" height="1549.47" x="249.535" y="136.243" color-interpolation-filters="sRGB" filterUnits="userSpaceOnUse"><feFlood flood-opacity="0" result="BackgroundImageFix"/><feBlend in="SourceGraphic" in2="BackgroundImageFix" result="shape"/><feGaussianBlur result="effect1_foregroundBlur_0_4" stdDeviation="39.808"/></filter><filter id="e" width="911.39" height="1577.85" x="194.949" y="120.779" color-interpolation-filters="sRGB" filterUnits="userSpaceOnUse"><feFlood flood-opacity="0" result="BackgroundImageFix"/><feBlend in="SourceGraphic" in2="BackgroundImageFix" result="shape"/><feGaussianBlur result="effect1_foregroundBlur_0_4" stdDeviation="39.808"/></filter><filter id="g" width="400.91" height="492.442" x="598.599" y="514.255" color-interpolation-filters="sRGB" filterUnits="userSpaceOnUse"><feFlood flood-opacity="0" result="BackgroundImageFix"/><feBlend in="SourceGraphic" in2="BackgroundImageFix" result="shape"/><feGaussianBlur result="effect1_foregroundBlur_0_4" stdDeviation="48.219"/></filter><filter id="h" width="451.754" height="674.057" x="295.126" y="555.444" color-interpolation-filters="sRGB" filterUnits="userSpaceOnUse"><feFlood flood-opacity="0" result="BackgroundImageFix"/><feBlend in="SourceGraphic" in2="BackgroundImageFix" result="shape"/><feGaussianBlur result="effect1_foregroundBlur_0_4" stdDeviation="58.95"/></filter><filter id="i" width="451.754" height="674.057" x="477.85" y="641.005" color-interpolation-filters="sRGB" filterUnits="userSpaceOnUse"><feFlood flood-opacity="0" result="BackgroundImageFix"/><feBlend in="SourceGraphic" in2="BackgroundImageFix" result="shape"/><feGaussianBlur result="effect1_foregroundBlur_0_4" stdDeviation="58.95"/></filter><filter id="j" width="799.824" height="306.552" x="191.826" y="950.352" color-interpolation-filters="sRGB" filterUnits="userSpaceOnUse"><feFlood flood-opacity="0" result="BackgroundImageFix"/><feBlend in="SourceGraphic" in2="BackgroundImageFix" result="shape"/><feGaussianBlur result="effect1_foregroundBlur_0_4" stdDeviation="13.325"/></filter><filter id="l" width="648.514" height="568.813" x="328.998" y="776.802" color-interpolation-filters="sRGB" filterUnits="userSpaceOnUse"><feFlood flood-opacity="0" result="BackgroundImageFix"/><feBlend in="SourceGraphic" in2="BackgroundImageFix" result="shape"/><feGaussianBlur result="effect1_foregroundBlur_0_4" stdDeviation="13.325"/></filter><filter id="n" width="432.475" height="788.309" x="98.305" y="523.038" color-interpolation-filters="sRGB" filterUnits="userSpaceOnUse"><feFlood flood-opacity="0" result="BackgroundImageFix"/><feBlend in="SourceGraphic" in2="BackgroundImageFix" result="shape"/><feGaussianBlur result="effect1_foregroundBlur_0_4" stdDeviation="13.325"/></filter><filter id="p" width="834.777" height="567.889" x="41.166" y="947.66" color-interpolation-filters="sRGB" filterUnits="userSpaceOnUse"><feFlood flood-opacity="0" result="BackgroundImageFix"/><feBlend in="SourceGraphic" in2="BackgroundImageFix" result="shape"/><feGaussianBlur result="effect1_foregroundBlur_0_4" stdDeviation="29.8"/></filter><filter id="r" width="332.066" height="933.843" x="287.138" y="735.887" color-interpolation-filters="sRGB" filterUnits="userSpaceOnUse"><feFlood flood-opacity="0" result="BackgroundImageFix"/><feBlend in="SourceGraphic" in2="BackgroundImageFix" result="shape"/><feGaussianBlur result="effect1_foregroundBlur_0_4" stdDeviation="29.8"/></filter><filter id="t" width="430.729" height="787.338" x="106.955" y="513.623" color-interpolation-filters="sRGB" filterUnits="userSpaceOnUse"><feFlood flood-opacity="0" result="BackgroundImageFix"/><feBlend in="SourceGraphic" in2="BackgroundImageFix" result="shape"/><feGaussianBlur result="effect1_foregroundBlur_0_4" stdDeviation="13.325"/></filter><filter id="v" width="188.138" height="926.515" x="345.748" y="639.371" color-interpolation-filters="sRGB" filterUnits="userSpaceOnUse"><feFlood flood-opacity="0" result="BackgroundImageFix"/><feBlend in="SourceGraphic" in2="BackgroundImageFix" result="shape"/><feGaussianBlur result="effect1_foregroundBlur_0_4" stdDeviation="13.325"/></filter><filter id="x" width="608.516" height="1027.66" x="340.139" y="324.685" color-interpolation-filters="sRGB" filterUnits="userSpaceOnUse"><feFlood flood-opacity="0" result="BackgroundImageFix"/><feBlend in="SourceGraphic" in2="BackgroundImageFix" result="shape"/><feGaussianBlur result="effect1_foregroundBlur_0_4" stdDeviation="63.887"/></filter><filter id="y" width="643.304" height="643.304" x="151.11" y="748.588" color-interpolation-filters="sRGB" filterUnits="userSpaceOnUse"><feFlood flood-opacity="0" result="BackgroundImageFix"/><feBlend in="SourceGraphic" in2="BackgroundImageFix" result="shape"/><feGaussianBlur result="effect1_foregroundBlur_0_4" stdDeviation="67.289"/></filter><filter id="z" width="295.253" height="432.802" x="618.238" y="572.13" color-interpolation-filters="sRGB" filterUnits="userSpaceOnUse"><feFlood flood-opacity="0" result="BackgroundImageFix"/><feBlend in="SourceGraphic" in2="BackgroundImageFix" result="shape"/><feGaussianBlur result="effect1_foregroundBlur_0_4" stdDeviation="40.75"/></filter><filter id="A" width="487.518" height="486.093" x="209.36" y="928.297" color-interpolation-filters="sRGB" filterUnits="userSpaceOnUse"><feFlood flood-opacity="0" result="BackgroundImageFix"/><feBlend in="SourceGraphic" in2="BackgroundImageFix" result="shape"/><feGaussianBlur result="effect1_foregroundBlur_0_4" stdDeviation="4.986"/></filter><filter id="B" width="504.743" height="504.743" x="202.306" y="883.962" color-interpolation-filters="sRGB" filterUnits="userSpaceOnUse"><feFlood flood-opacity="0" result="BackgroundImageFix"/><feBlend in="SourceGraphic" in2="BackgroundImageFix" result="shape"/><feGaussianBlur result="effect1_foregroundBlur_0_4" stdDeviation="7.942"/></filter><filter id="C" width="432.032" height="432.032" x="238.661" y="967.085" color-interpolation-filters="sRGB" filterUnits="userSpaceOnUse"><feFlood flood-opacity="0" result="BackgroundImageFix"/><feBlend in="SourceGraphic" in2="BackgroundImageFix" result="shape"/><feGaussianBlur result="effect1_foregroundBlur_0_4" stdDeviation="13.148"/></filter><filter id="D" width="128.592" height="129.592" x="389.903" y="901.704" color-interpolation-filters="sRGB" filterUnits="userSpaceOnUse"><feFlood flood-opacity="0" result="BackgroundImageFix"/><feBlend in="SourceGraphic" in2="BackgroundImageFix" result="shape"/><feGaussianBlur result="effect1_foregroundBlur_0_4" stdDeviation="13.148"/></filter><filter id="F" width="432.032" height="851.181" x="428.381" y="412.927" color-interpolation-filters="sRGB" filterUnits="userSpaceOnUse"><feFlood flood-opacity="0" result="BackgroundImageFix"/><feBlend in="SourceGraphic" in2="BackgroundImageFix" result="shape"/><feGaussianBlur result="effect1_foregroundBlur_0_4" stdDeviation="19.766"/></filter><filter id="G" width="433.152" height="581.582" x="438.433" y="737.486" color-interpolation-filters="sRGB" filterUnits="userSpaceOnUse"><feFlood flood-opacity="0" result="BackgroundImageFix"/><feBlend in="SourceGraphic" in2="BackgroundImageFix" result="shape"/><feGaussianBlur result="effect1_foregroundBlur_0_4" stdDeviation="54.71"/></filter><filter id="H" width="430.04" height="594.266" x="477.406" y="430.191" color-interpolation-filters="sRGB" filterUnits="userSpaceOnUse"><feFlood flood-opacity="0" result="BackgroundImageFix"/><feBlend in="SourceGraphic" in2="BackgroundImageFix" result="shape"/><feGaussianBlur result="effect1_foregroundBlur_0_4" stdDeviation="54.71"/></filter><filter id="I" width="557.892" height="703.682" x="417.859" y="526.919" color-interpolation-filters="sRGB" filterUnits="userSpaceOnUse"><feFlood flood-opacity="0" result="BackgroundImageFix"/><feBlend in="SourceGraphic" in2="BackgroundImageFix" result="shape"/><feGaussianBlur result="effect1_foregroundBlur_0_4" stdDeviation="54.71"/></filter><filter id="J" width="325.699" height="616.151" x="305.479" y="636.832" color-interpolation-filters="sRGB" filterUnits="userSpaceOnUse"><feFlood flood-opacity="0" result="BackgroundImageFix"/><feBlend in="SourceGraphic" in2="BackgroundImageFix" result="shape"/><feGaussianBlur result="effect1_foregroundBlur_0_4" stdDeviation="54.71"/></filter><filter id="K" width="457.295" height="860.707" x="322.003" y="578.553" color-interpolation-filters="sRGB" filterUnits="userSpaceOnUse"><feFlood flood-opacity="0" result="BackgroundImageFix"/><feBlend in="SourceGraphic" in2="BackgroundImageFix" result="shape"/><feGaussianBlur result="effect1_foregroundBlur_0_4" stdDeviation="18.266"/></filter><filter id="M" width="349.825" height="832.089" x="151.164" y="435.467" color-interpolation-filters="sRGB" filterUnits="userSpaceOnUse"><feFlood flood-opacity="0" result="BackgroundImageFix"/><feBlend in="SourceGraphic" in2="BackgroundImageFix" result="shape"/><feGaussianBlur result="effect1_foregroundBlur_0_4" stdDeviation="19.766"/></filter><filter id="N" width="357.619" height="589.474" x="280.009" y="689.966" color-interpolation-filters="sRGB" filterUnits="userSpaceOnUse"><feFlood flood-opacity="0" result="BackgroundImageFix"/><feBlend in="SourceGraphic" in2="BackgroundImageFix" result="shape"/><feGaussianBlur result="effect1_foregroundBlur_0_4" stdDeviation="54.71"/></filter><filter id="O" width="299.809" height="768.431" x="245.56" y="468.923" color-interpolation-filters="sRGB" filterUnits="userSpaceOnUse"><feFlood flood-opacity="0" result="BackgroundImageFix"/><feBlend in="SourceGraphic" in2="BackgroundImageFix" result="shape"/><feGaussianBlur result="effect1_foregroundBlur_0_4" stdDeviation="54.71"/></filter><filter id="P" width="417.768" height="550.845" x="66.972" y="765.326" color-interpolation-filters="sRGB" filterUnits="userSpaceOnUse"><feFlood flood-opacity="0" result="BackgroundImageFix"/><feBlend in="SourceGraphic" in2="BackgroundImageFix" result="shape"/><feGaussianBlur result="effect1_foregroundBlur_0_4" stdDeviation="54.71"/></filter><filter id="Q" width="281.237" height="615.011" x="186.703" y="520.222" color-interpolation-filters="sRGB" filterUnits="userSpaceOnUse"><feFlood flood-opacity="0" result="BackgroundImageFix"/><feBlend in="SourceGraphic" in2="BackgroundImageFix" result="shape"/><feGaussianBlur result="effect1_foregroundBlur_0_4" stdDeviation="18"/></filter><filter id="S" width="101.513" height="101.513" x="696.091" y="362.548" color-interpolation-filters="sRGB" filterUnits="userSpaceOnUse"><feFlood flood-opacity="0" result="BackgroundImageFix"/><feBlend in="SourceGraphic" in2="BackgroundImageFix" result="shape"/><feGaussianBlur result="effect1_foregroundBlur_0_4" stdDeviation="5.801"/></filter><filter id="T" width="78.31" height="78.31" x="640.984" y="965.826" color-interpolation-filters="sRGB" filterUnits="userSpaceOnUse"><feFlood flood-opacity="0" result="BackgroundImageFix"/><feBlend in="SourceGraphic" in2="BackgroundImageFix" result="shape"/><feGaussianBlur result="effect1_foregroundBlur_0_4" stdDeviation="5.801"/></filter><filter id="U" width="78.31" height="78.31" x="1125.35" y="926.671" color-interpolation-filters="sRGB" filterUnits="userSpaceOnUse"><feFlood flood-opacity="0" result="BackgroundImageFix"/><feBlend in="SourceGraphic" in2="BackgroundImageFix" result="shape"/><feGaussianBlur result="effect1_foregroundBlur_0_4" stdDeviation="5.801"/></filter><linearGradient id="d" x1="556.392" x2="859.838" y1="290.097" y2="1510.6" gradientUnits="userSpaceOnUse"><stop stop-color="#397adc"/><stop offset="1" stop-color="#3d34a0"/></linearGradient><linearGradient id="f" x1="525.738" x2="833.431" y1="279.576" y2="1517.17" gradientUnits="userSpaceOnUse"><stop stop-color="#0049b8"/><stop offset="1" stop-color="#2b2294"/></linearGradient><linearGradient id="k" x1="591.738" x2="591.738" y1="977.001" y2="1230.25" gradientUnits="userSpaceOnUse"><stop stop-color="#f3e155"/><stop offset=".548" stop-color="#2cc4e2"/><stop offset="1" stop-color="#e831c4"/></linearGradient><linearGradient id="m" x1="603.386" x2="700.423" y1="942.02" y2="1175.95" gradientUnits="userSpaceOnUse"><stop stop-color="#f3e155"/><stop offset=".548" stop-color="#2cc4e2"/><stop offset="1" stop-color="#e831c4"/></linearGradient><linearGradient id="u" x1="430.177" x2="220.859" y1="781.406" y2="1027.91" gradientUnits="userSpaceOnUse"><stop stop-color="#f3e155"/><stop offset=".548" stop-color="#2cc4e2"/><stop offset="1" stop-color="#e831c4"/></linearGradient><linearGradient id="w" x1="612.182" x2="200.916" y1="990.156" y2="1210.08" gradientUnits="userSpaceOnUse"><stop stop-color="#f3e155"/><stop offset=".548" stop-color="#2cc4e2"/><stop offset="1" stop-color="#e831c4"/></linearGradient><linearGradient id="R" x1="520.008" x2="133.909" y1="1000.73" y2="655.539" gradientUnits="userSpaceOnUse"><stop stop-color="#6196fd"/><stop offset="1" stop-color="#e6e3f1"/></linearGradient><radialGradient id="o" cx="0" cy="0" r="1" gradientTransform="rotate(120.918 -99.915 547.051)scale(222.551 350.172)" gradientUnits="userSpaceOnUse"><stop stop-color="#f3e155"/><stop offset=".548" stop-color="#2cc4e2"/><stop offset="1" stop-color="#e831c4"/></radialGradient><radialGradient id="q" cx="0" cy="0" r="1" gradientTransform="rotate(85.709 -434.05 862.148)scale(198.1 373.263)" gradientUnits="userSpaceOnUse"><stop stop-color="#f3e155"/><stop offset=".548" stop-color="#2cc4e2"/><stop offset="1" stop-color="#e831c4"/></radialGradient><radialGradient id="s" cx="0" cy="0" r="1" gradientTransform="rotate(134.301 -23.593 696.34)scale(223.068 359.263)" gradientUnits="userSpaceOnUse"><stop stop-color="#f3e155"/><stop offset=".548" stop-color="#2cc4e2"/><stop offset="1" stop-color="#e831c4"/></radialGradient><clipPath id="b"><rect width="1075" height="1150" fill="#fff" rx="100"/></clipPath></defs></svg>