<svg preserveAspectRatio="none" overflow="visible" style="display: block;" width="54.4205" height="35.0574" viewBox="0 0 54.4205 35.0574" fill="none" xmlns="http://www.w3.org/2000/svg">
<g id="Group 2">
<g id="Vector 19">
<path fill-rule="evenodd" clip-rule="evenodd" d="M23.6435 0L54.4205 10.3949L17.1212 27.2983L0.000162841 17.7325L23.6435 0Z" fill="#D9D9D9"/>
<path fill-rule="evenodd" clip-rule="evenodd" d="M0.000162841 17.7325L17.1212 27.2983L0.000162841 35.0573V17.7325Z" fill="#D9D9D9"/>
</g>
<g id="Mask group">
<mask id="mask0_0_24" style="mask-type:alpha" maskUnits="userSpaceOnUse" x="0" y="17" width="18" height="19">
<path id="Vector 25" fill-rule="evenodd" clip-rule="evenodd" d="M0 17.7325L17.121 27.2984L0 35.0574V17.7325Z" fill="url(#paint0_linear_0_24)"/>
</mask>
<g mask="url(#mask0_0_24)">
<path id="Vector 28" fill-rule="evenodd" clip-rule="evenodd" d="M0 17.7325L17.121 27.2984L0 35.0574V17.7325Z" fill="url(#paint1_linear_0_24)"/>
<g id="Vector 27" filter="url(#filter0_f_0_24)">
<path d="M-5.41928 24.2545L-6.35699 36.6941L55.8763 15.7003C56.0015 14.0689 55.0293 10.8548 50.1388 11.0498C45.2482 11.2449 11.0623 19.9343 -5.41928 24.2545Z" fill="url(#paint2_linear_0_24)"/>
</g>
</g>
</g>
<g id="Mask group_2">
<mask id="mask1_0_24" style="mask-type:alpha" maskUnits="userSpaceOnUse" x="0" y="0" width="55" height="28">
<path id="Vector 20" fill-rule="evenodd" clip-rule="evenodd" d="M23.6435 0L54.4205 10.3949L17.1212 27.2984L0.000162841 17.7325L23.6435 0Z" fill="url(#paint3_linear_0_24)"/>
</mask>
<g mask="url(#mask1_0_24)">
<path id="Vector 26" fill-rule="evenodd" clip-rule="evenodd" d="M23.6435 0L54.4205 10.3949L17.1212 27.2984L0.000162841 17.7325L23.6435 0Z" fill="url(#paint4_linear_0_24)"/>
<path id="Vector 21" d="M53.4009 10.5988L0.611067 18.344L21.8085 31.7962L53.4009 10.5988Z" fill="url(#paint5_linear_0_24)"/>
<g id="Vector 22" filter="url(#filter1_f_0_24)">
<path d="M55.4391 10.3908C50.0644 9.70971 38.756 10.3908 36.5202 18.5636C34.2843 26.7364 48.2012 16.5204 55.4391 10.3908Z" fill="#BE84A8"/>
</g>
<g id="Vector 23" filter="url(#filter2_f_0_24)">
<path d="M25.2616 11.8217C27.9076 11.8217 45.1202 11.0744 53.389 10.5988L22.0324 17.7325C21.8749 16.034 22.6156 11.8217 25.2616 11.8217Z" fill="#FFCDAD"/>
</g>
<g id="Ellipse 15" filter="url(#filter3_f_0_24)">
<ellipse cx="7.45396" cy="14.4083" rx="14.9809" ry="2.90885" transform="rotate(-38.2255 7.45396 14.4083)" fill="#FF939B"/>
</g>
<g id="Vector 24" filter="url(#filter4_f_0_24)">
<path d="M9.63404 25.2739L4.89172 23.0319L46.0637 12.2293L9.63404 25.2739Z" fill="#ACC3B9"/>
</g>
<g id="Vector 27_2" filter="url(#filter5_f_0_24)">
<path d="M-5.41912 24.2544L-6.35682 36.694L55.8765 15.7002C56.0017 14.0688 55.0295 10.8547 50.1389 11.0497C45.2484 11.2448 11.0625 19.9342 -5.41912 24.2544Z" fill="url(#paint6_linear_0_24)"/>
</g>
</g>
</g>
</g>
<defs>
<filter id="filter0_f_0_24" x="-9.61813" y="7.78021" width="68.7658" height="32.175" filterUnits="userSpaceOnUse" color-interpolation-filters="sRGB">
<feFlood flood-opacity="0" result="BackgroundImageFix"/>
<feBlend mode="normal" in="SourceGraphic" in2="BackgroundImageFix" result="shape"/>
<feGaussianBlur stdDeviation="1.63057" result="effect1_foregroundBlur_0_24"/>
</filter>
<filter id="filter1_f_0_24" x="32.2034" y="6.1147" width="27.3121" height="19.5669" filterUnits="userSpaceOnUse" color-interpolation-filters="sRGB">
<feFlood flood-opacity="0" result="BackgroundImageFix"/>
<feBlend mode="normal" in="SourceGraphic" in2="BackgroundImageFix" result="shape"/>
<feGaussianBlur stdDeviation="2.03822" result="effect1_foregroundBlur_0_24"/>
</filter>
<filter id="filter2_f_0_24" x="19.5665" y="8.15292" width="36.2684" height="12.0255" filterUnits="userSpaceOnUse" color-interpolation-filters="sRGB">
<feFlood flood-opacity="0" result="BackgroundImageFix"/>
<feBlend mode="normal" in="SourceGraphic" in2="BackgroundImageFix" result="shape"/>
<feGaussianBlur stdDeviation="1.22293" result="effect1_foregroundBlur_0_24"/>
</filter>
<filter id="filter3_f_0_24" x="-13.8291" y="-4.5168" width="42.5661" height="37.8502" filterUnits="userSpaceOnUse" color-interpolation-filters="sRGB">
<feFlood flood-opacity="0" result="BackgroundImageFix"/>
<feBlend mode="normal" in="SourceGraphic" in2="BackgroundImageFix" result="shape"/>
<feGaussianBlur stdDeviation="4.68789" result="effect1_foregroundBlur_0_24"/>
</filter>
<filter id="filter4_f_0_24" x="0.815288" y="8.15292" width="49.3248" height="21.1974" filterUnits="userSpaceOnUse" color-interpolation-filters="sRGB">
<feFlood flood-opacity="0" result="BackgroundImageFix"/>
<feBlend mode="normal" in="SourceGraphic" in2="BackgroundImageFix" result="shape"/>
<feGaussianBlur stdDeviation="2.03822" result="effect1_foregroundBlur_0_24"/>
</filter>
<filter id="filter5_f_0_24" x="-9.61797" y="7.7801" width="68.7659" height="32.175" filterUnits="userSpaceOnUse" color-interpolation-filters="sRGB">
<feFlood flood-opacity="0" result="BackgroundImageFix"/>
<feBlend mode="normal" in="SourceGraphic" in2="BackgroundImageFix" result="shape"/>
<feGaussianBlur stdDeviation="1.63057" result="effect1_foregroundBlur_0_24"/>
</filter>
<linearGradient id="paint0_linear_0_24" x1="2.24204" y1="17.9364" x2="2.24204" y2="35.0574" gradientUnits="userSpaceOnUse">
<stop stop-color="#BF4E8A"/>
<stop offset="0.125" stop-color="#745982"/>
<stop offset="1" stop-color="#483874"/>
</linearGradient>
<linearGradient id="paint1_linear_0_24" x1="2.24204" y1="17.9364" x2="2.24204" y2="35.0574" gradientUnits="userSpaceOnUse">
<stop stop-color="#BF4E8A"/>
<stop offset="0.125" stop-color="#745982"/>
<stop offset="1" stop-color="#483874"/>
</linearGradient>
<linearGradient id="paint2_linear_0_24" x1="24.6843" y1="14.6815" x2="24.743" y2="23.6495" gradientUnits="userSpaceOnUse">
<stop stop-color="#C083A9"/>
<stop offset="1" stop-color="#4C3B76"/>
</linearGradient>
<linearGradient id="paint3_linear_0_24" x1="25.0702" y1="3.46497" x2="22.8282" y2="12.4331" gradientUnits="userSpaceOnUse">
<stop stop-color="#855694"/>
<stop offset="0.408654" stop-color="#E4609B"/>
<stop offset="1" stop-color="#FFCDAD"/>
</linearGradient>
<linearGradient id="paint4_linear_0_24" x1="25.0702" y1="3.46497" x2="22.8282" y2="12.4331" gradientUnits="userSpaceOnUse">
<stop stop-color="#855694"/>
<stop offset="0.408654" stop-color="#E4609B"/>
<stop offset="1" stop-color="#FFCDAD"/>
</linearGradient>
<linearGradient id="paint5_linear_0_24" x1="25.6811" y1="16.3058" x2="27.9232" y2="31.7962" gradientUnits="userSpaceOnUse">
<stop stop-color="#FFCDAD"/>
<stop offset="0.442308" stop-color="#BE84A8"/>
<stop offset="1" stop-color="#68497D"/>
</linearGradient>
<linearGradient id="paint6_linear_0_24" x1="24.6845" y1="14.6814" x2="24.7432" y2="23.6494" gradientUnits="userSpaceOnUse">
<stop stop-color="#C083A9"/>
<stop offset="1" stop-color="#4C3B76"/>
</linearGradient>
</defs>
</svg>
