<svg xmlns="http://www.w3.org/2000/svg" width="54.42" height="35.057" fill="none" overflow="visible" preserveAspectRatio="none" style="display:block" viewBox="0 0 54.42 35.057"><g fill="#d9d9d9" fill-rule="evenodd" clip-rule="evenodd"><path d="M23.644 0 54.42 10.395l-37.3 16.903L0 17.733z"/><path d="m0 17.733 17.121 9.565-17.12 7.76z"/></g><mask id="b" width="18" height="19" x="0" y="17" maskUnits="userSpaceOnUse" style="mask-type:alpha"><path fill="url(#a)" fill-rule="evenodd" d="m0 17.733 17.121 9.565L0 35.058z" clip-rule="evenodd"/></mask><g mask="url(#b)"><path fill="url(#c)" fill-rule="evenodd" d="m0 17.733 17.121 9.565L0 35.058z" clip-rule="evenodd"/><g filter="url(#d)"><path fill="url(#e)" d="m-5.42 24.255-.937 12.44L55.876 15.7c.126-1.631-.847-4.845-5.737-4.65S11.062 19.934-5.42 24.255"/></g></g><mask id="g" width="55" height="28" x="0" y="0" maskUnits="userSpaceOnUse" style="mask-type:alpha"><path fill="url(#f)" fill-rule="evenodd" d="M23.644 0 54.42 10.395l-37.3 16.903L0 17.733z" clip-rule="evenodd"/></mask><g mask="url(#g)"><path fill="url(#h)" fill-rule="evenodd" d="M23.644 0 54.42 10.395l-37.3 16.903L0 17.733z" clip-rule="evenodd"/><path fill="url(#i)" d="M53.4 10.599.612 18.344l21.197 13.452z"/><g filter="url(#j)"><path fill="#be84a8" d="M55.44 10.39c-5.376-.68-16.684 0-18.92 8.174-2.236 8.172 11.681-2.044 18.92-8.173"/></g><g filter="url(#k)"><path fill="#ffcdad" d="M25.262 11.822c2.646 0 19.858-.748 28.127-1.223l-31.357 7.134c-.157-1.699.584-5.911 3.23-5.911"/></g><g filter="url(#l)"><ellipse cx="7.454" cy="14.408" fill="#ff939b" rx="14.981" ry="2.909" transform="rotate(-38.225 7.454 14.408)"/></g><g filter="url(#m)"><path fill="#acc3b9" d="m9.634 25.274-4.742-2.242 41.172-10.803z"/></g><g filter="url(#n)"><path fill="url(#o)" d="m-5.42 24.254-.937 12.44L55.877 15.7c.125-1.631-.848-4.845-5.738-4.65S11.063 19.934-5.42 24.254"/></g></g><defs><linearGradient id="a" x1="2.242" x2="2.242" y1="17.936" y2="35.057" gradientUnits="userSpaceOnUse"><stop stop-color="#bf4e8a"/><stop offset=".125" stop-color="#745982"/><stop offset="1" stop-color="#483874"/></linearGradient><linearGradient id="c" x1="2.242" x2="2.242" y1="17.936" y2="35.057" gradientUnits="userSpaceOnUse"><stop stop-color="#bf4e8a"/><stop offset=".125" stop-color="#745982"/><stop offset="1" stop-color="#483874"/></linearGradient><linearGradient id="e" x1="24.684" x2="24.743" y1="14.681" y2="23.649" gradientUnits="userSpaceOnUse"><stop stop-color="#c083a9"/><stop offset="1" stop-color="#4c3b76"/></linearGradient><linearGradient id="f" x1="25.07" x2="22.828" y1="3.465" y2="12.433" gradientUnits="userSpaceOnUse"><stop stop-color="#855694"/><stop offset=".409" stop-color="#e4609b"/><stop offset="1" stop-color="#ffcdad"/></linearGradient><linearGradient id="h" x1="25.07" x2="22.828" y1="3.465" y2="12.433" gradientUnits="userSpaceOnUse"><stop stop-color="#855694"/><stop offset=".409" stop-color="#e4609b"/><stop offset="1" stop-color="#ffcdad"/></linearGradient><linearGradient id="i" x1="25.681" x2="27.923" y1="16.306" y2="31.796" gradientUnits="userSpaceOnUse"><stop stop-color="#ffcdad"/><stop offset=".442" stop-color="#be84a8"/><stop offset="1" stop-color="#68497d"/></linearGradient><linearGradient id="o" x1="24.684" x2="24.743" y1="14.681" y2="23.649" gradientUnits="userSpaceOnUse"><stop stop-color="#c083a9"/><stop offset="1" stop-color="#4c3b76"/></linearGradient><filter id="d" width="68.766" height="32.175" x="-9.618" y="7.78" color-interpolation-filters="sRGB" filterUnits="userSpaceOnUse"><feFlood flood-opacity="0" result="BackgroundImageFix"/><feBlend in="SourceGraphic" in2="BackgroundImageFix" result="shape"/><feGaussianBlur result="effect1_foregroundBlur_0_24" stdDeviation="1.631"/></filter><filter id="j" width="27.312" height="19.567" x="32.203" y="6.115" color-interpolation-filters="sRGB" filterUnits="userSpaceOnUse"><feFlood flood-opacity="0" result="BackgroundImageFix"/><feBlend in="SourceGraphic" in2="BackgroundImageFix" result="shape"/><feGaussianBlur result="effect1_foregroundBlur_0_24" stdDeviation="2.038"/></filter><filter id="k" width="36.268" height="12.025" x="19.567" y="8.153" color-interpolation-filters="sRGB" filterUnits="userSpaceOnUse"><feFlood flood-opacity="0" result="BackgroundImageFix"/><feBlend in="SourceGraphic" in2="BackgroundImageFix" result="shape"/><feGaussianBlur result="effect1_foregroundBlur_0_24" stdDeviation="1.223"/></filter><filter id="l" width="42.566" height="37.85" x="-13.829" y="-4.517" color-interpolation-filters="sRGB" filterUnits="userSpaceOnUse"><feFlood flood-opacity="0" result="BackgroundImageFix"/><feBlend in="SourceGraphic" in2="BackgroundImageFix" result="shape"/><feGaussianBlur result="effect1_foregroundBlur_0_24" stdDeviation="4.688"/></filter><filter id="m" width="49.325" height="21.197" x=".815" y="8.153" color-interpolation-filters="sRGB" filterUnits="userSpaceOnUse"><feFlood flood-opacity="0" result="BackgroundImageFix"/><feBlend in="SourceGraphic" in2="BackgroundImageFix" result="shape"/><feGaussianBlur result="effect1_foregroundBlur_0_24" stdDeviation="2.038"/></filter><filter id="n" width="68.766" height="32.175" x="-9.618" y="7.78" color-interpolation-filters="sRGB" filterUnits="userSpaceOnUse"><feFlood flood-opacity="0" result="BackgroundImageFix"/><feBlend in="SourceGraphic" in2="BackgroundImageFix" result="shape"/><feGaussianBlur result="effect1_foregroundBlur_0_24" stdDeviation="1.631"/></filter></defs></svg>