<svg preserveAspectRatio="none" overflow="visible" style="display: block;" width="30.6656" height="77.0755" viewBox="0 0 30.6656 77.0755" fill="none" xmlns="http://www.w3.org/2000/svg">
<g id="Mask group">
<mask id="mask0_0_14" style="mask-type:alpha" maskUnits="userSpaceOnUse" x="0" y="0" width="31" height="78">
<path id="Vector 64" d="M8.36399 7.92414C7.74156 6.2125 11.2168 2.02416 13.0323 0.143942C14.4587 -0.115398 17.7783 -0.206167 19.6456 1.50548C21.9798 3.64503 19.2566 10.4527 19.6456 13.5648C20.0346 16.6769 24.3139 16.8714 25.2864 19.0109C26.259 21.1505 26.0645 23.0955 26.4535 27.9582C26.8425 32.8208 22.5633 39.0449 21.7852 40.99C21.0072 42.935 22.5633 43.7131 23.5358 45.2691C24.5084 46.8251 22.3688 50.3262 24.3139 54.0218C26.259 57.7174 32.4833 62.3855 30.1492 66.8591C27.8151 71.3328 19.2566 57.5229 17.3115 58.8844C15.3664 60.246 16.5334 74.0558 13.0323 76.3899C9.53108 78.7239 9.33653 74.4448 9.33653 73.2778C9.33653 72.1108 13.0323 57.3284 9.33653 55.9669C5.6408 54.6053 0 43.5185 0 40.99C0 38.4614 3.69572 39.4339 1.5561 34.7658C-0.583522 30.0977 0.583544 20.7615 1.5561 16.8714C2.52865 12.9813 5.64083 13.5648 7.00241 13.5648C8.36399 13.5648 9.14204 10.0637 8.36399 7.92414Z" fill="url(#paint0_radial_0_14)"/>
</mask>
<g mask="url(#mask0_0_14)">
<path id="Vector 65" d="M8.36399 7.92414C7.74156 6.2125 11.2168 2.02416 13.0323 0.143942C14.4587 -0.115398 17.7783 -0.206167 19.6456 1.50548C21.9798 3.64503 19.2566 10.4527 19.6456 13.5648C20.0346 16.6769 24.3139 16.8714 25.2864 19.0109C26.259 21.1505 26.0645 23.0955 26.4535 27.9582C26.8425 32.8208 22.5633 39.0449 21.7852 40.99C21.0072 42.935 22.5633 43.7131 23.5358 45.2691C24.5084 46.8251 22.3688 50.3262 24.3139 54.0218C26.259 57.7174 32.4833 62.3855 30.1492 66.8591C27.8151 71.3328 19.2566 57.5229 17.3115 58.8844C15.3664 60.246 16.5334 74.0558 13.0323 76.3899C9.53108 78.7239 9.33653 74.4448 9.33653 73.2778C9.33653 72.1108 13.0323 57.3284 9.33653 55.9669C5.6408 54.6053 0 43.5185 0 40.99C0 38.4614 3.69572 39.4339 1.5561 34.7658C-0.583522 30.0977 0.583544 20.7615 1.5561 16.8714C2.52865 12.9813 5.64083 13.5648 7.00241 13.5648C8.36399 13.5648 9.14204 10.0637 8.36399 7.92414Z" fill="url(#paint1_radial_0_14)"/>
<g id="Ellipse 33" filter="url(#filter0_f_0_14)">
<ellipse cx="33.546" cy="18.1626" rx="17.0822" ry="23.3079" fill="#81FFF9"/>
</g>
<g id="Ellipse 34" filter="url(#filter1_f_0_14)">
<ellipse cx="-5.96911" cy="48.6219" rx="17.0822" ry="23.3079" fill="#9749AB"/>
</g>
<g id="Vector 66">
</g>
</g>
</g>
<defs>
<filter id="filter0_f_0_14" x="-87.9362" y="-109.545" width="242.964" height="255.416" filterUnits="userSpaceOnUse" color-interpolation-filters="sRGB">
<feFlood flood-opacity="0" result="BackgroundImageFix"/>
<feBlend mode="normal" in="SourceGraphic" in2="BackgroundImageFix" result="shape"/>
<feGaussianBlur stdDeviation="52.2" result="effect1_foregroundBlur_0_14"/>
</filter>
<filter id="filter1_f_0_14" x="-127.451" y="-79.086" width="242.964" height="255.416" filterUnits="userSpaceOnUse" color-interpolation-filters="sRGB">
<feFlood flood-opacity="0" result="BackgroundImageFix"/>
<feBlend mode="normal" in="SourceGraphic" in2="BackgroundImageFix" result="shape"/>
<feGaussianBlur stdDeviation="52.2" result="effect1_foregroundBlur_0_14"/>
</filter>
<radialGradient id="paint0_radial_0_14" cx="0" cy="0" r="1" gradientUnits="userSpaceOnUse" gradientTransform="translate(15.3328 38.5378) rotate(90) scale(38.5377 15.3328)">
<stop stop-color="#EDD574"/>
<stop offset="1" stop-color="#EB407C"/>
</radialGradient>
<radialGradient id="paint1_radial_0_14" cx="0" cy="0" r="1" gradientUnits="userSpaceOnUse" gradientTransform="translate(15.3328 38.5378) rotate(90) scale(38.5377 15.3328)">
<stop stop-color="#EDD574"/>
<stop offset="1" stop-color="#EB407C"/>
</radialGradient>
</defs>
</svg>
