<svg xmlns="http://www.w3.org/2000/svg" width="722" height="307.5" fill="none" overflow="visible" preserveAspectRatio="none" style="display:block" viewBox="0 0 722 307.5"><mask id="a" width="722" height="308" x="0" y="0" maskUnits="userSpaceOnUse" style="mask-type:alpha"><path fill="#d9d9d9" d="M82.5 39.5V120L0 170v137.5h722V213l-51.5-55L660 77l-53-58.5-88 21L476 144 450.5 30.5h-124L306 120l-36 72.5-26-65.5 7-87.5L161.5 0z"/></mask><g mask="url(#a)"><path fill="#d9d9d9" d="M82.5 39.5V120L0 170v137.5h722V213l-51.5-55L660 77l-53-58.5-88 21L476 144 450.5 30.5h-124L306 120l-36 72.5-26-65.5 7-87.5L161.5 0z"/><g filter="url(#b)"><path fill="url(#c)" d="M680.453 332.791c-7.679 6.64-114.036 55.467-107.541 29.721 5.196-20.597 38-39.567 53.753-46.477-50.617 19.802-149.486 49.501-140.03 9.885 5.488-22.995 18.744-35.935 31.849-42.732-77.4 19.438-202.032 43.853-231.388 22.594-41.026-29.71-176.577-39.034-185.204-33.492S10.104 325.774-72.26 284.839s-234.609-18.571-249.06-31.957c-11.56-10.71 76.145-15.036 121.443-15.861l99.826-86.315-174.758-.346c30.985-6.662 118.311-23.697 219.734-38.543C71.705 93.26 75.21 30.798 30.523 9.048s-82.62-9.082-117.2-21.359c-27.663-9.821-52.375-17.338-61.274-19.87 30.877-7.526 118.465-17.31 221.805 3.762C203.029-2.079 310.07-74.502 348.948-50.603 387.825-26.706 431.416-4.008 476.817.83c36.32 3.87 157.427-60.714 213.441-93.49 75.592 20.909 228.559 63.678 235.685 67.485 8.908 4.76 141.827-13.353 162.897-13.365 16.87-.01-265.23 247.55-408.387 371.331"/></g><g filter="url(#d)"><path fill="url(#e)" d="M710.201 379.013c-7.786 6.732-116.754 54.947-110.691 28.235 4.85-21.369 38.357-40.322 54.505-47.128-51.948 19.359-153.651 47.797-144.881 6.681 5.091-23.865 18.494-37.031 31.901-43.787-79.718 18.283-208.262 40.533-239.241 17.575-43.294-32.085-184.032-45.344-192.83-39.781-8.798 5.562-93.745 53.454-180.177 8.575-86.433-44.88-243.649-25.488-258.975-39.84-12.26-11.481 78.532-13.719 125.461-13.402l101.223-87.524-181.142-4.904c31.942-6.15 122.011-21.665 226.748-34.529C73.023 113.104 75.032 47.982 28.15 24.112S-57.72 12.482-93.88-1.235c-28.927-10.973-54.736-19.464-64.025-22.337 31.807-7.056 122.335-14.994 229.993 9.693 134.571 30.858 243.634-41.975 284.551-16.013C397.555-3.93 443.325 20.9 490.508 27.132c37.746 4.985 161.592-59.297 218.796-92.061C788.197-41.134 947.855 7.496 955.34 11.656c9.357 5.2 146.65-10.255 168.5-9.72 17.47.428-268.479 251.563-413.639 377.077"/></g><g filter="url(#f)"><ellipse cx="189.062" cy="55.765" fill="#bd58b8" rx="54.382" ry="174.023" transform="rotate(-84.46 189.062 55.765)"/></g><g filter="url(#g)"><ellipse cx="432.531" cy="244.067" fill="#48d7f2" rx="82.661" ry="229.855" transform="rotate(-97.987 432.531 244.067)"/></g><g filter="url(#h)"><ellipse cx="426.211" cy="42.403" fill="#48d7f2" rx="82.661" ry="229.855" transform="rotate(-97.987 426.211 42.403)"/></g><g filter="url(#i)"><path fill="url(#j)" d="M388.297-50.398C469.885 73.727 743.835 275.68 870.611 361.14c-51.323-64.717-61.904-69.45-288.338-264.94-99.264-85.699-222.285-216.349-266.242-289.127-9.907-4.21-9.322 18.402 72.266 142.528"/></g><g filter="url(#k)"><path fill="url(#l)" d="M284.51 3.352c122.922 83.39 453.344 164.964 603.19 195.327-72.202-40.113-83.789-40.431-367.847-134.24C395.328 23.313 231.636-50.228 163.148-100.61c-10.763-.093-1.559 20.57 121.362 103.96"/></g><g filter="url(#m)"><path fill="url(#n)" d="M323.499 599.196C362.4 463.121 650.7 197.529 789.988 81.743c-34.279 73.696-47.665 81.223-264.996 326.188-95.272 107.386-195.407 262.24-212.033 340.81-12.695 6.85-28.361-13.47 10.54-149.545"/></g><g filter="url(#o)"><path fill="url(#p)" d="M495.521 61.083c98.681 112.812 460.863 248.99 629.619 302.978-63.99-55.871-78.42-57.667-373.686-202.486C622.017 98.09 465.111-8.191 412.792-75.637c-13.541-1.432-15.952 23.909 82.729 136.72"/></g><g filter="url(#q)"><path fill="url(#r)" d="M476.345 293.821c70.483-126.785 415.242-325.31 578.815-408.724-51.07 65.62-65.924 70.045-336.513 264.345-118.62 85.177-253.331 216.586-288.334 291.137-14.024 3.908-24.45-19.973 46.032-146.758"/></g><g filter="url(#s)"><path fill="url(#t)" d="M335.684 588.221c55.674-141.468 317.81-397.571 441.918-507.94-39.7 75.372-50.897 82.139-257.569 322.93-90.6 105.558-194.328 261.284-222.257 343.518-10.562 6.109-17.767-17.039 37.908-158.508"/></g><g filter="url(#u)"><path fill="url(#v)" d="M370.806 301.898C480.523 198.516 885.674 110.944 1074.53 80.081c-71.3 48.885-87.472 48.562-417.465 155.458-144.662 46.86-319.764 134.465-377.867 197.297-15.18-.571-18.11-27.557 91.608-130.938"/></g><g filter="url(#w)"><path fill="#fff" d="M703.383 166.262c-83.868 29.843-262.694 82.154-307.05 52.653-14.243-9.473-14.69-17.453-7.067-24.05-156.303 34.968-356.206 70.237-366.507 34.613-12.791-44.237 167.483-78.403 259.219-89.956l-377.508 36.07C35.92 110.087 321.268-4.46 411.048 61.398s259.877 70.157 333.704 64.074z"/></g><g filter="url(#x)"><circle cx="612.898" cy="206.704" r="187.074" fill="#fff" transform="rotate(-116.887 612.898 206.704)"/></g><g filter="url(#y)"><ellipse cx="229.092" cy="72.681" fill="#eb5858" rx="39.155" ry="145.029" transform="rotate(-94.458 229.092 72.68)"/></g><g filter="url(#z)"><path fill="#f64a28" d="m478.356 233.18 139.849-59.455-132.939-73.619 149.792 25.592L563.024-8.107 675.201 94.407l11.742-151.509 38.946 146.888 91.789-121.11-46.65 144.626 142.695-52.258-117.434 96.446 148.295 33.184-150.935 17.645L900.463 316.41l-136.515-66.757 31.419 148.679-78.752-129.965-53.95 142.063 4.014-151.909-122.192 90.343 85.506-125.624z"/></g><g filter="url(#A)"><path fill="#f6e841" d="m469.101 299.89 124.96-79.202-147.685 8.789 143.319-36.712-143.173-37.278 147.649 9.373-124.645-79.696 137.526 54.541-93.918-114.314 113.941 94.369-53.996-137.74 79.203 124.96-8.789-147.685 36.711 143.319 37.278-143.173-9.373 147.649 79.697-124.645-54.541 137.525 114.313-93.917-94.369 113.941L890.95 85.998 765.99 165.2l147.685-8.789-143.319 36.712 143.172 37.278-147.649-9.373 124.646 79.696-137.526-54.541 93.917 114.314-113.941-94.369 53.996 137.741-79.202-124.961 8.789 147.685-36.711-143.319-37.279 143.173 9.374-147.649-79.697 124.646 54.541-137.526-114.314 93.917 94.37-113.941z"/></g><g filter="url(#B)"><path fill="#fff" d="m552.526 257.591 100.248-63.539-118.479 7.051 114.976-29.451-114.858-29.907 118.449 7.52-99.995-63.935 110.329 43.754-75.345-91.707 91.408 75.707-43.317-110.5 63.539 100.247-7.051-118.479L721.881 99.33l29.906-114.86-7.519 118.451 63.935-99.996-43.754 110.329 91.706-75.345-75.706 91.408L890.95 85.999l-100.248 63.539 118.478-7.051-114.976 29.451 114.859 29.906-118.45-7.519 99.996 63.935-110.329-43.754 75.344 91.706-91.408-75.706 43.318 110.501-63.539-100.248 7.051 118.478-29.452-114.976-29.906 114.859 7.52-118.45-63.936 99.996 43.755-110.329-91.707 75.344 75.707-91.407z"/></g><g filter="url(#C)"><path fill="#fff" d="m494.429 287.585 20.357-12.868-23.987 1.542 23.301-6.037-23.214-5.884 23.965 1.384-20.17-12.734 22.283 8.67-15.152-18.337 18.42 15.107-8.65-22.146 12.754 20.065-1.302-23.787 5.839 23.06 6.175-23.099-1.648 23.797 13.046-20.151-8.973 22.204 18.641-15.229-15.419 18.438 22.41-8.817-20.357 12.868 23.987-1.542-23.302 6.037 23.215 5.884-23.965-1.384 20.17 12.734-22.283-8.67 15.152 18.337-18.42-15.107 8.649 22.146-12.753-20.065 1.301 23.787-5.838-23.06-6.175 23.099 1.648-23.797-13.046 20.151 8.972-22.204-18.64 15.229 15.419-18.438z"/></g><mask id="D" width="841" height="204" x="-96" y="41" maskUnits="userSpaceOnUse" style="mask-type:alpha"><path fill="#fff" d="M703.383 166.262c-83.868 29.843-262.694 82.154-307.05 52.653-14.243-9.473-14.69-17.453-7.067-24.05-156.303 34.968-356.206 70.237-366.507 34.613-12.791-44.237 167.483-78.403 259.219-89.956l-377.508 36.07C35.92 110.087 321.268-4.46 411.048 61.398s259.877 70.157 333.704 64.074z"/></mask><g mask="url(#D)"><g filter="url(#E)"><path fill="#fff" d="M703.383 166.262c-83.868 29.843-262.694 82.154-307.05 52.653-14.243-9.473-14.69-17.453-7.067-24.05-156.303 34.968-356.206 70.237-366.507 34.613-12.791-44.237 167.483-78.403 259.219-89.956l-377.508 36.07C35.92 110.087 321.268-4.46 411.048 61.398s259.877 70.157 333.704 64.074z"/></g><g filter="url(#F)"><ellipse cx="493.054" cy="63.133" fill="#3adfe7" rx="57.9" ry="202.515" transform="rotate(-89.208 493.054 63.133)"/></g><g filter="url(#G)"><ellipse cx="207.712" cy="165.86" fill="#f15ecf" rx="73.241" ry="202.515" transform="rotate(-93.127 207.712 165.86)"/></g><g filter="url(#H)"><ellipse cx="340.799" cy="93.472" fill="#e9e675" rx="26.776" ry="294.584" transform="rotate(-82.098 340.799 93.472)"/></g><g filter="url(#I)"><ellipse cx="503.119" cy="267.336" fill="#4593e5" rx="36.132" ry="202.515" transform="rotate(-105.494 503.119 267.336)"/></g><g filter="url(#J)"><path fill="#fff" d="M961.101 158.224c-24.613 8.626-217.335 23.487-791.313 13.923-60.117 5.651-147.297 9.297-15.081-21.328 132.217-30.625 592.687-7.824 806.394 7.405"/></g></g><mask id="K" width="562" height="558" x="197" y="145" maskUnits="userSpaceOnUse" style="mask-type:alpha"><path fill="#fff" d="M754.664 199.918c-40.776 73.165-134.684 221.18-184.109 227.922-15.871 2.164-21.096-3.19-19.779-12.581-88.698 121.784-207.953 270.87-237.133 252.132-36.235-23.269 69.858-159.38 127.434-224.528L197.084 702.859C249.471 574.966 380.2 316.854 484.022 307.547s226.404-111.954 274.717-162.114z"/></mask><g mask="url(#K)"><g filter="url(#L)"><path fill="#fff" d="M754.664 199.918c-40.776 73.165-134.684 221.18-184.109 227.922-15.871 2.164-21.096-3.19-19.779-12.581-88.698 121.784-207.953 270.87-237.133 252.132-36.235-23.269 69.858-159.38 127.434-224.528L197.084 702.859C249.471 574.966 380.2 316.854 484.022 307.547s226.404-111.954 274.717-162.114z"/></g><g filter="url(#M)"><ellipse cx="54.209" cy="190.305" fill="#3adfe7" rx="54.209" ry="190.305" transform="matrix(-.64665 -.76279 .75932 -.65072 433.464 423.005)"/></g><g filter="url(#N)"><ellipse cx="25.087" cy="276.626" fill="#e9e675" rx="25.087" ry="276.626" transform="matrix(-.54695 -.83716 .83382 -.55203 237.285 547.533)"/></g><g filter="url(#O)"><ellipse cx="33.789" cy="190.522" fill="#4593e5" rx="33.789" ry="190.522" transform="rotate(213.2 385.279 197.465)skewY(.144)"/></g><g filter="url(#P)"><path fill="url(#Q)" d="M396.47 522.279c88.359-31.572 210.648-208.006 260.748-292.277-3.19 73.956-196.107 309.49-251.308 308.475-44.16-.813-110.655 82.133-138.383 123.708 6.165-33.481 40.585-108.335 128.943-139.906"/></g></g><g filter="url(#R)"><path fill="#fff" d="m-131.895 277.036 29.563-19.459-12.348-33.17 19.46 29.564 33.17-12.349-29.564 19.46 12.348 33.17-19.46-29.564z"/></g><g filter="url(#S)"><path fill="#fff" d="m436.337 63.716 20.804-13.694-8.689-23.342 13.694 20.804 23.342-8.689-20.804 13.694 8.689 23.342-13.694-20.805z"/></g><g filter="url(#T)"><path fill="#fff" d="m182.374-350.583 20.804-13.694-8.69-23.342 13.694 20.805 23.342-8.69-20.804 13.694 8.689 23.342-13.694-20.804z"/></g></g><defs><filter id="b" width="1571.16" height="621.841" x="-401.975" y="-172.276" color-interpolation-filters="sRGB" filterUnits="userSpaceOnUse"><feFlood flood-opacity="0" result="BackgroundImageFix"/><feBlend in="SourceGraphic" in2="BackgroundImageFix" result="shape"/><feGaussianBlur result="effect1_foregroundBlur_0_4" stdDeviation="39.808"/></filter><filter id="d" width="1615.15" height="639.404" x="-410.93" y="-144.545" color-interpolation-filters="sRGB" filterUnits="userSpaceOnUse"><feFlood flood-opacity="0" result="BackgroundImageFix"/><feBlend in="SourceGraphic" in2="BackgroundImageFix" result="shape"/><feGaussianBlur result="effect1_foregroundBlur_0_4" stdDeviation="39.808"/></filter><filter id="f" width="539.457" height="306.257" x="-80.667" y="-97.363" color-interpolation-filters="sRGB" filterUnits="userSpaceOnUse"><feFlood flood-opacity="0" result="BackgroundImageFix"/><feBlend in="SourceGraphic" in2="BackgroundImageFix" result="shape"/><feGaussianBlur result="effect1_foregroundBlur_0_4" stdDeviation="48.219"/></filter><filter id="g" width="691.641" height="411.586" x="86.71" y="38.274" color-interpolation-filters="sRGB" filterUnits="userSpaceOnUse"><feFlood flood-opacity="0" result="BackgroundImageFix"/><feBlend in="SourceGraphic" in2="BackgroundImageFix" result="shape"/><feGaussianBlur result="effect1_foregroundBlur_0_4" stdDeviation="58.95"/></filter><filter id="h" width="691.641" height="411.586" x="80.391" y="-163.39" color-interpolation-filters="sRGB" filterUnits="userSpaceOnUse"><feFlood flood-opacity="0" result="BackgroundImageFix"/><feBlend in="SourceGraphic" in2="BackgroundImageFix" result="shape"/><feGaussianBlur result="effect1_foregroundBlur_0_4" stdDeviation="58.95"/></filter><filter id="i" width="612.241" height="607.829" x="285.019" y="-220.04" color-interpolation-filters="sRGB" filterUnits="userSpaceOnUse"><feFlood flood-opacity="0" result="BackgroundImageFix"/><feBlend in="SourceGraphic" in2="BackgroundImageFix" result="shape"/><feGaussianBlur result="effect1_foregroundBlur_0_4" stdDeviation="13.325"/></filter><filter id="k" width="781.181" height="352.586" x="133.168" y="-127.258" color-interpolation-filters="sRGB" filterUnits="userSpaceOnUse"><feFlood flood-opacity="0" result="BackgroundImageFix"/><feBlend in="SourceGraphic" in2="BackgroundImageFix" result="shape"/><feGaussianBlur result="effect1_foregroundBlur_0_4" stdDeviation="13.325"/></filter><filter id="m" width="544.453" height="721.453" x="272.184" y="55.094" color-interpolation-filters="sRGB" filterUnits="userSpaceOnUse"><feFlood flood-opacity="0" result="BackgroundImageFix"/><feBlend in="SourceGraphic" in2="BackgroundImageFix" result="shape"/><feGaussianBlur result="effect1_foregroundBlur_0_4" stdDeviation="13.325"/></filter><filter id="o" width="838.331" height="558.955" x="346.409" y="-135.294" color-interpolation-filters="sRGB" filterUnits="userSpaceOnUse"><feFlood flood-opacity="0" result="BackgroundImageFix"/><feBlend in="SourceGraphic" in2="BackgroundImageFix" result="shape"/><feGaussianBlur result="effect1_foregroundBlur_0_4" stdDeviation="29.8"/></filter><filter id="q" width="754.23" height="675.071" x="360.526" y="-174.503" color-interpolation-filters="sRGB" filterUnits="userSpaceOnUse"><feFlood flood-opacity="0" result="BackgroundImageFix"/><feBlend in="SourceGraphic" in2="BackgroundImageFix" result="shape"/><feGaussianBlur result="effect1_foregroundBlur_0_4" stdDeviation="29.8"/></filter><filter id="s" width="540.454" height="720.62" x="263.797" y="53.632" color-interpolation-filters="sRGB" filterUnits="userSpaceOnUse"><feFlood flood-opacity="0" result="BackgroundImageFix"/><feBlend in="SourceGraphic" in2="BackgroundImageFix" result="shape"/><feGaussianBlur result="effect1_foregroundBlur_0_4" stdDeviation="13.325"/></filter><filter id="u" width="856.304" height="406.052" x="244.879" y="53.432" color-interpolation-filters="sRGB" filterUnits="userSpaceOnUse"><feFlood flood-opacity="0" result="BackgroundImageFix"/><feBlend in="SourceGraphic" in2="BackgroundImageFix" result="shape"/><feGaussianBlur result="effect1_foregroundBlur_0_4" stdDeviation="13.325"/></filter><filter id="w" width="1095.83" height="458.223" x="-223.304" y="-86.124" color-interpolation-filters="sRGB" filterUnits="userSpaceOnUse"><feFlood flood-opacity="0" result="BackgroundImageFix"/><feBlend in="SourceGraphic" in2="BackgroundImageFix" result="shape"/><feGaussianBlur result="effect1_foregroundBlur_0_4" stdDeviation="63.887"/></filter><filter id="x" width="643.384" height="643.384" x="291.206" y="-114.988" color-interpolation-filters="sRGB" filterUnits="userSpaceOnUse"><feFlood flood-opacity="0" result="BackgroundImageFix"/><feBlend in="SourceGraphic" in2="BackgroundImageFix" result="shape"/><feGaussianBlur result="effect1_foregroundBlur_0_4" stdDeviation="67.289"/></filter><filter id="y" width="452.247" height="244.286" x="2.969" y="-49.462" color-interpolation-filters="sRGB" filterUnits="userSpaceOnUse"><feFlood flood-opacity="0" result="BackgroundImageFix"/><feBlend in="SourceGraphic" in2="BackgroundImageFix" result="shape"/><feGaussianBlur result="effect1_foregroundBlur_0_4" stdDeviation="40.75"/></filter><filter id="z" width="486.171" height="487.475" x="468.384" y="-67.073" color-interpolation-filters="sRGB" filterUnits="userSpaceOnUse"><feFlood flood-opacity="0" result="BackgroundImageFix"/><feBlend in="SourceGraphic" in2="BackgroundImageFix" result="shape"/><feGaussianBlur result="effect1_foregroundBlur_0_4" stdDeviation="4.986"/></filter><filter id="A" width="499.066" height="499.066" x="430.493" y="-56.589" color-interpolation-filters="sRGB" filterUnits="userSpaceOnUse"><feFlood flood-opacity="0" result="BackgroundImageFix"/><feBlend in="SourceGraphic" in2="BackgroundImageFix" result="shape"/><feGaussianBlur result="effect1_foregroundBlur_0_4" stdDeviation="7.942"/></filter><filter id="B" width="427.477" height="427.477" x="507.999" y="-41.944" color-interpolation-filters="sRGB" filterUnits="userSpaceOnUse"><feFlood flood-opacity="0" result="BackgroundImageFix"/><feBlend in="SourceGraphic" in2="BackgroundImageFix" result="shape"/><feGaussianBlur result="effect1_foregroundBlur_0_4" stdDeviation="13.148"/></filter><filter id="C" width="128.528" height="127.899" x="464.503" y="206.225" color-interpolation-filters="sRGB" filterUnits="userSpaceOnUse"><feFlood flood-opacity="0" result="BackgroundImageFix"/><feBlend in="SourceGraphic" in2="BackgroundImageFix" result="shape"/><feGaussianBlur result="effect1_foregroundBlur_0_4" stdDeviation="13.148"/></filter><filter id="E" width="919.347" height="281.739" x="-135.063" y="2.118" color-interpolation-filters="sRGB" filterUnits="userSpaceOnUse"><feFlood flood-opacity="0" result="BackgroundImageFix"/><feBlend in="SourceGraphic" in2="BackgroundImageFix" result="shape"/><feGaussianBlur result="effect1_foregroundBlur_0_4" stdDeviation="19.766"/></filter><filter id="F" width="623.834" height="334.766" x="181.137" y="-104.25" color-interpolation-filters="sRGB" filterUnits="userSpaceOnUse"><feFlood flood-opacity="0" result="BackgroundImageFix"/><feBlend in="SourceGraphic" in2="BackgroundImageFix" result="shape"/><feGaussianBlur result="effect1_foregroundBlur_0_4" stdDeviation="54.71"/></filter><filter id="G" width="623.347" height="366.783" x="-103.961" y="-17.531" color-interpolation-filters="sRGB" filterUnits="userSpaceOnUse"><feFlood flood-opacity="0" result="BackgroundImageFix"/><feBlend in="SourceGraphic" in2="BackgroundImageFix" result="shape"/><feGaussianBlur result="effect1_foregroundBlur_0_4" stdDeviation="54.71"/></filter><filter id="H" width="802.461" height="315.671" x="-60.431" y="-64.364" color-interpolation-filters="sRGB" filterUnits="userSpaceOnUse"><feFlood flood-opacity="0" result="BackgroundImageFix"/><feBlend in="SourceGraphic" in2="BackgroundImageFix" result="shape"/><feGaussianBlur result="effect1_foregroundBlur_0_4" stdDeviation="54.71"/></filter><filter id="I" width="609.635" height="347.53" x="198.301" y="93.571" color-interpolation-filters="sRGB" filterUnits="userSpaceOnUse"><feFlood flood-opacity="0" result="BackgroundImageFix"/><feBlend in="SourceGraphic" in2="BackgroundImageFix" result="shape"/><feGaussianBlur result="effect1_foregroundBlur_0_4" stdDeviation="54.71"/></filter><filter id="J" width="948.673" height="113.359" x="48.961" y="99.138" color-interpolation-filters="sRGB" filterUnits="userSpaceOnUse"><feFlood flood-opacity="0" result="BackgroundImageFix"/><feBlend in="SourceGraphic" in2="BackgroundImageFix" result="shape"/><feGaussianBlur result="effect1_foregroundBlur_0_4" stdDeviation="18.266"/></filter><filter id="L" width="640.719" height="636.491" x="157.552" y="105.901" color-interpolation-filters="sRGB" filterUnits="userSpaceOnUse"><feFlood flood-opacity="0" result="BackgroundImageFix"/><feBlend in="SourceGraphic" in2="BackgroundImageFix" result="shape"/><feGaussianBlur result="effect1_foregroundBlur_0_4" stdDeviation="19.766"/></filter><filter id="M" width="516.296" height="480.021" x="284.765" y="17.811" color-interpolation-filters="sRGB" filterUnits="userSpaceOnUse"><feFlood flood-opacity="0" result="BackgroundImageFix"/><feBlend in="SourceGraphic" in2="BackgroundImageFix" result="shape"/><feGaussianBlur result="effect1_foregroundBlur_0_4" stdDeviation="54.71"/></filter><filter id="N" width="680.984" height="527.166" x="113.729" y="110.241" color-interpolation-filters="sRGB" filterUnits="userSpaceOnUse"><feFlood flood-opacity="0" result="BackgroundImageFix"/><feBlend in="SourceGraphic" in2="BackgroundImageFix" result="shape"/><feGaussianBlur result="effect1_foregroundBlur_0_4" stdDeviation="54.71"/></filter><filter id="O" width="435.039" height="539.874" x="458.121" y="125.725" color-interpolation-filters="sRGB" filterUnits="userSpaceOnUse"><feFlood flood-opacity="0" result="BackgroundImageFix"/><feBlend in="SourceGraphic" in2="BackgroundImageFix" result="shape"/><feGaussianBlur result="effect1_foregroundBlur_0_4" stdDeviation="54.71"/></filter><filter id="P" width="461.69" height="504.183" x="231.527" y="194.002" color-interpolation-filters="sRGB" filterUnits="userSpaceOnUse"><feFlood flood-opacity="0" result="BackgroundImageFix"/><feBlend in="SourceGraphic" in2="BackgroundImageFix" result="shape"/><feGaussianBlur result="effect1_foregroundBlur_0_4" stdDeviation="18"/></filter><filter id="R" width="93.048" height="93.048" x="-143.497" y="212.805" color-interpolation-filters="sRGB" filterUnits="userSpaceOnUse"><feFlood flood-opacity="0" result="BackgroundImageFix"/><feBlend in="SourceGraphic" in2="BackgroundImageFix" result="shape"/><feGaussianBlur result="effect1_foregroundBlur_0_4" stdDeviation="5.801"/></filter><filter id="S" width="72.353" height="72.353" x="424.736" y="15.079" color-interpolation-filters="sRGB" filterUnits="userSpaceOnUse"><feFlood flood-opacity="0" result="BackgroundImageFix"/><feBlend in="SourceGraphic" in2="BackgroundImageFix" result="shape"/><feGaussianBlur result="effect1_foregroundBlur_0_4" stdDeviation="5.801"/></filter><filter id="T" width="72.353" height="72.353" x="170.772" y="-399.22" color-interpolation-filters="sRGB" filterUnits="userSpaceOnUse"><feFlood flood-opacity="0" result="BackgroundImageFix"/><feBlend in="SourceGraphic" in2="BackgroundImageFix" result="shape"/><feGaussianBlur result="effect1_foregroundBlur_0_4" stdDeviation="5.801"/></filter><linearGradient id="c" x1="-120.734" x2="830.615" y1="484.915" y2="-337.675" gradientUnits="userSpaceOnUse"><stop stop-color="#397adc"/><stop offset="1" stop-color="#3d34a0"/></linearGradient><linearGradient id="e" x1="-116.254" x2="848.412" y1="517.014" y2="-317.092" gradientUnits="userSpaceOnUse"><stop stop-color="#0049b8"/><stop offset="1" stop-color="#2b2294"/></linearGradient><linearGradient id="j" x1="475.933" x2="701.812" y1="142.754" y2="28.226" gradientUnits="userSpaceOnUse"><stop stop-color="#f3e155"/><stop offset=".548" stop-color="#2cc4e2"/><stop offset="1" stop-color="#e831c4"/></linearGradient><linearGradient id="l" x1="439.467" x2="604.224" y1="148.184" y2="-44.151" gradientUnits="userSpaceOnUse"><stop stop-color="#f3e155"/><stop offset=".548" stop-color="#2cc4e2"/><stop offset="1" stop-color="#e831c4"/></linearGradient><linearGradient id="t" x1="374.544" x2="689.057" y1="375.304" y2="450.522" gradientUnits="userSpaceOnUse"><stop stop-color="#f3e155"/><stop offset=".548" stop-color="#2cc4e2"/><stop offset="1" stop-color="#e831c4"/></linearGradient><linearGradient id="v" x1="478.421" x2="860.559" y1="118.571" y2="385.924" gradientUnits="userSpaceOnUse"><stop stop-color="#f3e155"/><stop offset=".548" stop-color="#2cc4e2"/><stop offset="1" stop-color="#e831c4"/></linearGradient><linearGradient id="Q" x1="529.533" x2="396.264" y1="196.001" y2="696.466" gradientUnits="userSpaceOnUse"><stop stop-color="#6196fd"/><stop offset="1" stop-color="#e6e3f1"/></linearGradient><radialGradient id="n" cx="0" cy="0" r="1" gradientTransform="rotate(4.031 -5629.802 7927.172)scale(222.551 350.172)" gradientUnits="userSpaceOnUse"><stop stop-color="#f3e155"/><stop offset=".548" stop-color="#2cc4e2"/><stop offset="1" stop-color="#e831c4"/></radialGradient><radialGradient id="p" cx="0" cy="0" r="1" gradientTransform="rotate(-31.178 645.13 -1292.723)scale(198.1 373.263)" gradientUnits="userSpaceOnUse"><stop stop-color="#f3e155"/><stop offset=".548" stop-color="#2cc4e2"/><stop offset="1" stop-color="#e831c4"/></radialGradient><radialGradient id="r" cx="0" cy="0" r="1" gradientTransform="rotate(17.415 -158.648 2479.43)scale(223.068 359.263)" gradientUnits="userSpaceOnUse"><stop stop-color="#f3e155"/><stop offset=".548" stop-color="#2cc4e2"/><stop offset="1" stop-color="#e831c4"/></radialGradient></defs></svg>